HIERARCHY
ROOT hip
{
  OFFSET 2.45105 82.2337 54.9205
  CHANNELS 6 Xposition Yposition Zposition Zrotation Xrotation Yrotation
  JOINT abdomen
  {
    OFFSET 0 20.6881 -0.73152
    CHANNELS 3 Zrotation Xrotation Yrotation
    JOINT chest
    {
      OFFSET 0 11.7043 -0.48768
      CHANNELS 3 Zrotation Xrotation Yrotation
      JOINT neck
      {
        OFFSET 0 22.1894 -2.19456
        CHANNELS 3 Zrotation Xrotation Yrotation
        JOINT head
        {
          OFFSET -0.24384 7.07133 1.2192
          CHANNELS 3 Zrotation Xrotation Yrotation
          JOINT leftEye
          {
            OFFSET 4.14528 8.04674 8.04672
            CHANNELS 3 Zrotation Xrotation Yrotation
            End Site
            {
              OFFSET 1 0 0
            }
          }
          JOINT rightEye
          {
            OFFSET -3.6576 8.04674 8.04672
            CHANNELS 3 Zrotation Xrotation Yrotation
            End Site
            {
              OFFSET 1 0 0
            }
          }
        }
      }
      JOINT rCollar
      {
        OFFSET -2.68224 19.2634 -4.8768
        CHANNELS 3 Zrotation Xrotation Yrotation
        JOINT rShldr
        {
          OFFSET -8.77824 -1.95073 1.46304
          CHANNELS 3 Zrotation Xrotation Yrotation
          JOINT rForeArm
          {
            OFFSET -28.1742 -1.7115 0.48768
            CHANNELS 3 Zrotation Xrotation Yrotation
            JOINT rHand
            {
              OFFSET -22.5879 0.773209 7.07136
              CHANNELS 3 Zrotation Xrotation Yrotation
              JOINT rThumb1
              {
                OFFSET -1.2192 -0.487915 3.41376
                CHANNELS 3 Zrotation Xrotation Yrotation
                JOINT rThumb2
                {
                  OFFSET -3.37035 -0.52449 3.41376
                  CHANNELS 3 Zrotation Xrotation Yrotation
                  End Site
                  {
                    OFFSET -1.78271 -1.18214 1.43049
                  }
                }
              }
              JOINT rIndex1
              {
                OFFSET -7.75947 0.938293 5.60832
                CHANNELS 3 Zrotation Xrotation Yrotation
                JOINT rIndex2
                {
                  OFFSET -2.54057 -0.884171 1.56538
                  CHANNELS 3 Zrotation Xrotation Yrotation
                  End Site
                  {
                    OFFSET -1.62519 -0.234802 1.16502
                  }
                }
              }
              JOINT rMid1
              {
                OFFSET -8.24714 1.18213 3.41376
                CHANNELS 3 Zrotation Xrotation Yrotation
                JOINT rMid2
                {
                  OFFSET -3.10165 -0.590103 1.0647
                  CHANNELS 3 Zrotation Xrotation Yrotation
                  End Site
                  {
                    OFFSET -2.48547 -0.328903 0.83742
                  }
                }
              }
              JOINT rRing1
              {
                OFFSET -8.82822 0.546677 1.51678
                CHANNELS 3 Zrotation Xrotation Yrotation
                JOINT rRing2
                {
                  OFFSET -2.60934 -0.819778 -0.0198488
                  CHANNELS 3 Zrotation Xrotation Yrotation
                  End Site
                  {
                    OFFSET -2.33842 -0.294052 0.168128
                  }
                }
              }
              JOINT rPinky1
              {
                OFFSET -8.27202 -0.0477905 -0.4584
                CHANNELS 3 Zrotation Xrotation Yrotation
                JOINT rPinky2
                {
                  OFFSET -1.82734 -0.647385 -0.700984
                  CHANNELS 3 Zrotation Xrotation Yrotation
                  End Site
                  {
                    OFFSET -1.69225 -0.51767 -0.607171
                  }
                }
              }
            }
          }
        }
      }
      JOINT lCollar
      {
        OFFSET 2.68224 19.2634 -4.8768
        CHANNELS 3 Zrotation Xrotation Yrotation
        JOINT lShldr
        {
          OFFSET 8.77824 -1.95073 1.46304
          CHANNELS 3 Zrotation Xrotation Yrotation
          JOINT lForeArm
          {
            OFFSET 28.1742 -1.7115 0.48768
            CHANNELS 3 Zrotation Xrotation Yrotation
            JOINT lHand
            {
              OFFSET 22.5879 0.773209 7.07136
              CHANNELS 3 Zrotation Xrotation Yrotation
              JOINT lThumb1
              {
                OFFSET 1.2192 -0.487915 3.41376
                CHANNELS 3 Zrotation Xrotation Yrotation
                JOINT lThumb2
                {
                  OFFSET 3.37035 -0.52449 3.41376
                  CHANNELS 3 Zrotation Xrotation Yrotation
                  End Site
                  {
                    OFFSET 1.78271 -1.18214 1.43049
                  }
                }
              }
              JOINT lIndex1
              {
                OFFSET 7.75947 0.938293 5.60832
                CHANNELS 3 Zrotation Xrotation Yrotation
                JOINT lIndex2
                {
                  OFFSET 2.54057 -0.884171 1.56538
                  CHANNELS 3 Zrotation Xrotation Yrotation
                  End Site
                  {
                    OFFSET 1.62519 -0.234802 1.16502
                  }
                }
              }
              JOINT lMid1
              {
                OFFSET 8.24714 1.18213 3.41376
                CHANNELS 3 Zrotation Xrotation Yrotation
                JOINT lMid2
                {
                  OFFSET 3.10165 -0.590103 1.0647
                  CHANNELS 3 Zrotation Xrotation Yrotation
                  End Site
                  {
                    OFFSET 2.48547 -0.328903 0.83742
                  }
                }
              }
              JOINT lRing1
              {
                OFFSET 8.82822 0.546677 1.51678
                CHANNELS 3 Zrotation Xrotation Yrotation
                JOINT lRing2
                {
                  OFFSET 2.60934 -0.819778 -0.0198488
                  CHANNELS 3 Zrotation Xrotation Yrotation
                  End Site
                  {
                    OFFSET 2.33842 -0.294052 0.168128
                  }
                }
              }
              JOINT lPinky1
              {
                OFFSET 8.27202 -0.0477905 -0.4584
                CHANNELS 3 Zrotation Xrotation Yrotation
                JOINT lPinky2
                {
                  OFFSET 1.82734 -0.647385 -0.700984
                  CHANNELS 3 Zrotation Xrotation Yrotation
                  End Site
                  {
                    OFFSET 1.69225 -0.51767 -0.607171
                  }
                }
              }
            }
          }
        }
      }
    }
  }
  JOINT rButtock
  {
    OFFSET -8.77824 4.35084 1.2192
    CHANNELS 3 Zrotation Xrotation Yrotation
    JOINT rThigh
    {
      OFFSET 0 -1.70687 -2.19456
      CHANNELS 3 Zrotation Xrotation Yrotation
      JOINT rShin
      {
        OFFSET 0 -36.8199 0.73152
        CHANNELS 3 Zrotation Xrotation Yrotation
        JOINT rFoot
        {
          OFFSET 0.73152 -45.1104 -5.12064
          CHANNELS 3 Zrotation Xrotation Yrotation
          End Site
          {
            OFFSET -1.1221 -3.69964 12.103
          }
        }
      }
    }
  }
  JOINT lButtock
  {
    OFFSET 8.77824 4.35084 1.2192
    CHANNELS 3 Zrotation Xrotation Yrotation
    JOINT lThigh
    {
      OFFSET 0 -1.70687 -2.19456
      CHANNELS 3 Zrotation Xrotation Yrotation
      JOINT lShin
      {
        OFFSET 0 -36.8199 0.73152
        CHANNELS 3 Zrotation Xrotation Yrotation
        JOINT lFoot
        {
          OFFSET -0.73152 -45.1104 -5.12064
          CHANNELS 3 Zrotation Xrotation Yrotation
          End Site
          {
            OFFSET 1.1221 -3.69964 12.103
          }
        }
      }
    }
  }
}
MOTION
Frames:	4
Frame Time:	0.00833333
4.19023 82.4855 56.6251 3.31389 0.0169026 -0.0637731 -4.35895 0.00629236 -0.117456 -1.20159 0.0324761 -0.207681 2.96079e-014 7.95139e-016 1.14301e-015 8.72758e-014 3.18055e-015 3.77691e-015 -0 0 0 -0 0 0 1.41633e-014 1.30647e-016 5.96354e-016 3.02172e-013 2.40405e-015 1.43125e-014 5.14763e-012 -1.46604e-012 1.74931e-013 5.90213e-011 2.01304e-012 2.41086e-012 1.39201e-010 1.18729e-012 5.60414e-012 2.40388e-010 2.05146e-012 9.6506e-012 1.39206e-010 1.18674e-012 5.58823e-012 7.73091 5.47488 0.417314 1.39201e-010 1.18645e-012 5.59778e-012 2.90554 0.965183 0.102902 1.39208e-010 1.18734e-012 5.5938e-012 10.2786 0.731801 0.0259123 1.39195e-010 1.18833e-012 5.60096e-012 2.22167 -0.733487 -0.20892 1.40651e-014 1.17252e-016 3.97569e-016 2.96741e-013 2.168e-015 1.21259e-014 5.15493e-012 1.63043e-012 1.59028e-013 5.89578e-011 -1.09483e-012 2.42676e-012 1.39095e-010 1.16448e-012 5.58187e-012 2.40214e-010 2.01329e-012 9.65457e-012 1.3909e-010 1.16567e-012 5.5946e-012 -7.73091 5.47488 -0.417314 1.39096e-010 1.16398e-012 5.58505e-012 -2.90554 0.965183 -0.102902 1.39084e-010 1.16428e-012 5.58823e-012 -10.2786 0.731801 -0.0259123 1.39105e-010 1.16766e-012 5.58505e-012 -2.22167 -0.733487 0.20892 -2.03217e-016 0 -3.88251e-019 -2.88808 -1.94435 0.0304143 -0.0079732 -2.07874 -0.0650979 -0.422371 4.00217 0.127132 2.03217e-016 0 3.88251e-019 -3.7254 -11.2507 0.483801 -0.0143132 14.7725 -0.388796 0.544854 -3.54243 0.012508 
1.68482 82.2434 54.5908 0.36942 2.55011 -0.450528 -1.5481 -2.65033 -0.0755042 -1.38455 -2.44981 -0.298183 -2.71169 3.63245 -3.4039 4.23497 -2.95321 -6.32482 -0 0 0 -0 0 0 -6.44686e-014 -5.02232e-014 1.1521e-014 21.9034 -3.28668 -4.00365 -4.0461 -1.80518 6.35524 0.24972 11.1255 1.45927 -7.38988e-011 -1.72716e-010 9.73625e-010 -9.64744e-011 -3.19588e-010 1.68411e-009 -7.38937e-011 -1.72716e-010 9.73609e-010 7.73091 5.47488 0.417314 -7.38994e-011 -1.72717e-010 9.73618e-010 2.90554 0.965183 0.102902 -7.38936e-011 -1.72716e-010 9.73617e-010 10.2786 0.731801 0.0259123 -7.39054e-011 -1.72715e-010 9.73626e-010 2.22167 -0.733487 -0.20892 -6.45709e-014 -5.02315e-014 1.1295e-014 -23.4044 0.1799 3.90194 3.75388 -1.62235 -5.95037 -0.0603919 5.45974 -0.75482 7.91796e-010 1.35502e-010 -2.74094e-010 1.36309e-009 2.28539e-010 -4.85708e-010 7.91792e-010 1.35503e-010 -2.74081e-010 -7.73091 5.47488 -0.417314 7.91798e-010 1.35502e-010 -2.7409e-010 -2.90554 0.965183 -0.102902 7.91786e-010 1.35502e-010 -2.74089e-010 -10.2786 0.731801 -0.0259123 7.91804e-010 1.35505e-010 -2.74094e-010 -2.22167 -0.733487 0.20892 -2.03217e-016 0 -3.88251e-019 -0.721579 -2.9668 7.00054 0.00418739 -1.78441 0.0403985 -0.886266 1.53088 -6.67062 2.03217e-016 0 3.88251e-019 -2.86361 -9.98896 -12.2768 -0.00793659 13.9801 -0.23613 1.60742 -9.95512 14.5354 
1.67486 82.2136 54.5477 -2.71641 5.21268 -0.861753 1.44672 -5.43126 -0.0334347 -1.5902 -5.08445 -0.396119 -5.10841 7.42022 -7.04814 7.9955 -5.94856 -13.0663 -0 0 0 -0 0 0 -1.57257e-013 -1.07089e-013 2.49661e-014 44.5534 -6.70709 -8.28073 -7.89355 -3.64134 13.098 -0.150293 22.8782 3.19915 -2.91338e-010 -3.83048e-010 2.08058e-009 -4.36443e-010 -7.0707e-010 3.59814e-009 -2.91332e-010 -3.83047e-010 2.08057e-009 7.73091 5.47488 0.417314 -2.91338e-010 -3.83049e-010 2.08057e-009 2.90554 0.965183 0.102902 -2.91335e-010 -3.83049e-010 2.08058e-009 10.2786 0.731801 0.0259123 -2.91345e-010 -3.83047e-010 2.08059e-009 2.22167 -0.733487 -0.20892 -1.57361e-013 -1.07092e-013 2.47114e-014 -48.1762 0.347007 8.02787 7.3565 -3.27801 -12.2536 0.0351613 11.2526 -1.57932 1.55269e-009 3.08233e-010 -5.62381e-010 2.67261e-009 5.20923e-010 -9.97837e-010 1.55269e-009 3.08232e-010 -5.62366e-010 -7.73091 5.47488 -0.417314 1.55269e-009 3.08232e-010 -5.62375e-010 -2.90554 0.965183 -0.102902 1.55268e-009 3.08233e-010 -5.62376e-010 -10.2786 0.731801 -0.0259123 1.55269e-009 3.08235e-010 -5.62383e-010 -2.22167 -0.733487 0.20892 -2.03217e-016 0 -3.88251e-019 1.85098 -3.94953 14.3817 0.0158951 -1.47244 0.151801 -2.00777 -1.02776 -13.8509 2.03217e-016 0 3.88251e-019 -1.33579 -8.21964 -25.6386 0.00339035 13.1395 -0.0764738 6.19641 -15.0824 30.5792 
1.66748 82.1768 54.5091 -5.41612 7.61502 -1.23358 4.08529 -7.96358 0.00872493 -1.77425 -7.41422 -0.482405 -6.82835 10.7423 -10.3749 10.7708 -8.4271 -19.164 -0 0 0 -0 0 0 -2.21732e-013 -1.50931e-013 3.33702e-014 64.3265 -9.66634 -12.1665 -10.9575 -5.14957 19.1365 -1.23195 33.2809 5.14033 -5.00099e-010 -5.20523e-010 2.90967e-009 -7.702e-010 -9.62868e-010 5.03302e-009 -5.00093e-010 -5.20521e-010 2.90965e-009 7.73091 5.47488 0.417314 -5.00099e-010 -5.20523e-010 2.90966e-009 2.90554 0.965183 0.102902 -5.00098e-010 -5.20523e-010 2.90966e-009 10.2786 0.731801 0.0259123 -5.00106e-010 -5.20521e-010 2.90968e-009 2.22167 -0.733487 -0.20892 -2.21843e-013 -1.50929e-013 3.30899e-014 -70.2863 0.529704 11.7063 10.2661 -4.65748 -17.9051 0.265772 16.3676 -2.34945 2.0972e-009 4.04178e-010 -8.33447e-010 3.60883e-009 6.81591e-010 -1.47643e-009 2.0972e-009 4.04177e-010 -8.33431e-010 -7.73091 5.47488 -0.417314 2.0972e-009 4.04178e-010 -8.33441e-010 -2.90554 0.965183 -0.102902 2.09719e-009 4.04178e-010 -8.33443e-010 -10.2786 0.731801 -0.0259123 2.0972e-009 4.0418e-010 -8.33452e-010 -2.22167 -0.733487 0.20892 -2.03217e-016 0 -3.88251e-019 4.33793 -4.7431 20.9878 0.0252563 -1.19574 0.251302 -3.54055 -3.17111 -20.2908 2.03217e-016 0 3.88251e-019 0.582867 -6.48372 -37.4933 0.0177833 12.3949 0.0660196 12.7101 -17.1543 45.4432 
